<?xml version="1.0" standalone="no"?>
<!DOCTYPE svg PUBLIC "-//W3C//DTD SVG 20010904//EN"
 "http://www.w3.org/TR/2001/REC-SVG-20010904/DTD/svg10.dtd">
<svg version="1.0" xmlns="http://www.w3.org/2000/svg"
 width="300.000000pt" height="300.000000pt" viewBox="0 0 300.000000 300.000000"
 preserveAspectRatio="xMidYMid meet">
<metadata>
Created by potrace 1.11, written by Peter Selinger 2001-2013
</metadata>
<g transform="translate(0.000000,300.000000) scale(0.100000,-0.100000)"
fill="#000000" stroke="none">
<path d="M1437 2963 c-1 -1 -29 -4 -62 -8 -419 -46 -795 -267 -1040 -610 -52
-73 -53 -74 -103 -170 -84 -162 -135 -328 -158 -515 -8 -64 -8 -271 0 -315 3
-16 8 -50 11 -75 39 -271 181 -559 379 -768 237 -249 530 -400 871 -449 102
-15 371 -8 460 11 99 21 130 30 200 53 331 111 625 355 804 668 48 84 131 280
131 309 0 7 -29 22 -67 33 l-68 21 -14 -32 c-7 -17 -15 -40 -17 -51 -7 -39
-96 -211 -152 -295 -80 -120 -244 -281 -367 -362 -245 -161 -476 -229 -750
-222 -66 1 -130 5 -141 7 -12 3 -37 8 -55 11 -62 10 -209 56 -277 87 -387 175
-668 512 -768 919 -28 118 -35 170 -34 285 1 173 16 264 71 424 115 332 371
615 694 767 195 91 319 119 535 119 164 0 215 -5 320 -29 36 -8 67 -12 71 -8
11 13 41 121 35 130 -5 9 -110 35 -191 47 -89 13 -311 26 -318 18z"/>
<path d="M2315 2308 c-93 -31 -157 -81 -201 -155 -126 -216 -16 -485 226 -548
271 -70 520 200 431 468 -63 193 -268 299 -456 235z m200 -117 c55 -25 93 -66
123 -130 46 -100 16 -224 -70 -294 -114 -92 -281 -56 -350 77 -32 61 -34 169
-5 225 66 122 191 173 302 122z"/>
<path d="M1276 2273 c-161 -49 -271 -204 -260 -369 18 -291 346 -443 583 -270
184 135 191 422 14 570 -86 72 -230 102 -337 69z"/>
<path d="M1083 1239 c-148 -47 -252 -186 -254 -339 0 -73 7 -105 38 -169 56
-115 166 -189 297 -198 161 -12 295 68 365 217 22 47 26 68 26 145 -1 77 -5
98 -28 147 -81 166 -273 252 -444 197z m213 -127 c58 -29 101 -83 120 -148 61
-211 -149 -392 -336 -288 -180 101 -157 382 37 449 51 18 130 12 179 -13z"/>
</g>
</svg>
